<svg width="163" height="75" viewBox="0 0 163 75" fill="none" xmlns="http://www.w3.org/2000/svg">
<path d="M14.101 53.9272V67.3328H11.8857V57.2835L8.01365 67.3328H6.08727L2.19601 57.2835V67.3328H0V53.9272H2.65836L7.08897 64.6324L11.4426 53.9272H14.101Z" fill="white"/>
<path d="M23.8676 53.7151V63.5909C23.8676 64.8127 23.527 65.7641 22.8465 66.4455C22.1656 67.1272 21.2218 67.4678 20.0149 67.4678C18.7048 67.4678 17.6773 67.0887 16.9326 66.3299C16.1877 65.5713 15.8153 64.4974 15.8153 63.1088H17.9921C17.9921 63.8545 18.1493 64.4332 18.4642 64.8445C18.7787 65.2564 19.2636 65.4619 19.9184 65.4619C20.5221 65.4619 20.9651 65.2883 21.2477 64.941C21.53 64.5938 21.6714 64.144 21.6714 63.5909V53.7151H23.8676Z" fill="white"/>
<path d="M33.3354 64.9506C33.7911 64.5716 34.0194 64.041 34.0194 63.3593C34.0194 62.6778 33.7881 62.1441 33.3258 61.7584C32.8635 61.3726 32.2148 61.1797 31.38 61.1797H28.6253V65.5196H31.3995C32.234 65.5196 32.8793 65.3301 33.3354 64.9506ZM28.6253 59.5788H31.3415C32.1122 59.5788 32.6996 59.3988 33.1043 59.0388C33.5088 58.6789 33.711 58.1773 33.711 57.5342C33.711 56.9043 33.5088 56.4091 33.1043 56.049C32.6996 55.6891 32.0863 55.5089 31.2646 55.5089H28.6253V59.5788ZM35.5123 61.4884C36.0195 62.1056 36.2732 62.8259 36.2732 63.6487C36.2732 64.7804 35.8941 65.6772 35.1366 66.3394C34.3786 67.0018 33.2807 67.3328 31.8425 67.3328H26.4293V53.715H31.7462C33.1073 53.715 34.1507 54.0207 34.8765 54.6313C35.6019 55.2421 35.965 56.0813 35.965 57.1485C35.965 58.0101 35.74 58.7079 35.2908 59.2412C34.841 59.7749 34.2505 60.1318 33.5184 60.3118C34.3401 60.479 35.0046 60.8711 35.5123 61.4884Z" fill="white"/>
<path d="M49.748 64.9506C50.2037 64.5716 50.4318 64.041 50.4318 63.3593C50.4318 62.6778 50.2006 62.1441 49.7382 61.7584C49.2759 61.3726 48.6272 61.1797 47.7926 61.1797H45.0379V65.5196H47.8119C48.6466 65.5196 49.2919 65.3301 49.748 64.9506ZM45.0379 59.5788H47.7541C48.5247 59.5788 49.1122 59.3988 49.5167 59.0388C49.9212 58.6789 50.1234 58.1773 50.1234 57.5342C50.1234 56.9043 49.9212 56.4091 49.5167 56.049C49.1122 55.6891 48.4987 55.5089 47.677 55.5089H45.0379V59.5788ZM51.9247 61.4884C52.4319 62.1056 52.6856 62.8259 52.6856 63.6487C52.6856 64.7804 52.3067 65.6772 51.5491 66.3394C50.791 67.0018 49.6931 67.3328 48.2549 67.3328H42.8419V53.715H48.1586C49.5197 53.715 50.5633 54.0207 51.2891 54.6313C52.0144 55.2421 52.3774 56.0813 52.3774 57.1485C52.3774 58.0101 52.1524 58.7079 51.7032 59.2412C51.2534 59.7749 50.6629 60.1318 49.9308 60.3118C50.7526 60.479 51.4172 60.8711 51.9247 61.4884Z" fill="white"/>
<path d="M56.8465 53.7151V61.7971C56.8465 63.0059 57.113 63.9061 57.646 64.4974C58.1787 65.089 58.9269 65.3847 59.8901 65.3847C60.8404 65.3847 61.582 65.089 62.1152 64.4974C62.6479 63.9061 62.9145 63.0059 62.9145 61.7971V53.7151H65.1107V61.7971C65.1107 63.6617 64.629 65.0731 63.6659 66.0309C62.7026 66.989 61.4312 67.4678 59.8516 67.4678C58.2846 67.4678 57.0261 66.989 56.0758 66.0309C55.1254 65.0731 54.6505 63.6617 54.6505 61.7971V53.7151H56.8465Z" fill="white"/>
<path d="M69.8683 53.715V67.3328H67.6722V53.715H69.8683Z" fill="white"/>
<path d="M74.7231 65.616H79.4234V67.3328H72.5271V53.715H74.7231V65.616Z" fill="white"/>
<path d="M89.2671 64.0731C90.1402 63.2243 90.5769 62.0351 90.5769 60.5047C90.5769 58.9744 90.1402 57.785 89.2671 56.9362C88.3936 56.0876 87.1414 55.6632 85.5104 55.6632H83.3339V65.3461H85.5104C87.1414 65.3461 88.3936 64.9217 89.2671 64.0731ZM91.9735 64.1019C91.415 65.1243 90.5992 65.9183 89.527 66.484C88.4547 67.0501 87.1736 67.3328 85.684 67.3328H81.1377V53.715H85.684C87.1736 53.715 88.4547 53.9947 89.527 54.5542C90.5992 55.1134 91.415 55.9013 91.9735 56.917C92.5323 57.933 92.8114 59.1288 92.8114 60.5047C92.8114 61.8807 92.5323 63.0796 91.9735 64.1019Z" fill="white"/>
<path d="M97.2229 55.4897V59.6173H102.231V61.3147H97.2229V65.5389H102.809V67.3328H95.0267V53.715H102.809V55.4897H97.2229Z" fill="white"/>
<path d="M107.143 60.331H109.571C111.343 60.331 112.229 59.5468 112.229 57.9778C112.229 57.2322 112.014 56.6502 111.584 56.2323C111.153 55.8145 110.482 55.6053 109.571 55.6053H107.143V60.331ZM112.094 67.3328L108.704 61.8934H107.143V67.3328H104.947V53.715H109.744C111.298 53.715 112.476 54.0944 113.279 54.8531C114.081 55.6121 114.483 56.615 114.483 57.862C114.483 58.9296 114.184 59.8039 113.587 60.4854C112.99 61.1672 112.126 61.6039 110.996 61.797L114.56 67.3328H112.094Z" fill="white"/>
<path d="M124.924 65.5679C124.603 66.1402 124.115 66.5999 123.46 66.9472C122.805 67.2943 122.002 67.4678 121.052 67.4678C120.127 67.4678 119.299 67.3039 118.567 66.9761C117.835 66.6481 117.25 66.1885 116.814 65.5969C116.377 65.0056 116.127 64.3239 116.062 63.5524H118.413C118.477 64.144 118.731 64.6519 119.173 65.0761C119.617 65.5005 120.21 65.7125 120.955 65.7125C121.623 65.7125 122.14 65.5326 122.506 65.1725C122.872 64.8127 123.055 64.3497 123.055 63.7837C123.055 63.2953 122.92 62.8935 122.651 62.5782C122.381 62.2633 122.047 62.0159 121.649 61.8356C121.251 61.6556 120.705 61.4499 120.012 61.2184C119.164 60.9485 118.473 60.6784 117.941 60.4083C117.407 60.1382 116.955 59.7461 116.583 59.2317C116.21 58.7176 116.024 58.0424 116.024 57.2063C116.024 56.4735 116.204 55.8306 116.563 55.2774C116.923 54.7248 117.436 54.2971 118.104 53.9948C118.772 53.693 119.543 53.5416 120.416 53.5416C121.803 53.5416 122.904 53.8761 123.72 54.5446C124.535 55.2134 125.001 56.0876 125.116 57.1678H122.747C122.657 56.6536 122.416 56.213 122.024 55.8465C121.633 55.48 121.097 55.2969 120.416 55.2969C119.8 55.2969 119.305 55.4545 118.933 55.7694C118.56 56.0847 118.374 56.5378 118.374 57.1291C118.374 57.5922 118.502 57.975 118.759 58.2769C119.016 58.5793 119.34 58.8169 119.732 58.9905C120.124 59.1642 120.66 59.3666 121.341 59.5982C122.201 59.8681 122.904 60.1415 123.45 60.4179C123.996 60.6946 124.458 61.0963 124.837 61.6234C125.216 62.1508 125.405 62.8453 125.405 63.7066C125.405 64.3755 125.245 64.9959 124.924 65.5679Z" fill="white"/>
<path d="M134.305 65.616H139.005V67.3328H132.109V53.715H134.305V65.616Z" fill="white"/>
<path d="M149.465 53.715V55.4897H145.67V67.3328H143.455V55.4897H139.679V53.715H149.465Z" fill="white"/>
<path d="M159.232 64.0731C160.105 63.2243 160.542 62.0351 160.542 60.5047C160.542 58.9744 160.105 57.785 159.232 56.9362C158.359 56.0876 157.106 55.6632 155.475 55.6632H153.299V65.3461H155.475C157.106 65.3461 158.359 64.9217 159.232 64.0731ZM161.939 64.1019C161.38 65.1243 160.564 65.9183 159.492 66.484C158.42 67.0501 157.139 67.3328 155.649 67.3328H151.103V53.715H155.649C157.139 53.715 158.42 53.9947 159.492 54.5542C160.564 55.1134 161.38 55.9013 161.939 56.917C162.497 57.933 162.776 59.1288 162.776 60.5047C162.776 61.8807 162.497 63.0796 161.939 64.1019Z" fill="white"/>
<path d="M2.80891 74.0601C2.95773 73.9585 3.03209 73.808 3.03209 73.6087C3.03209 73.422 2.95869 73.2766 2.81189 73.173C2.66525 73.0693 2.44098 73.0173 2.13929 73.0173H0.930279V74.2127H2.19508C2.45547 74.2127 2.66008 74.162 2.80891 74.0601ZM2.56648 72.2289C2.71518 72.1307 2.78965 71.9795 2.78965 71.775C2.78965 71.5956 2.72449 71.4568 2.59429 71.3587C2.46404 71.2606 2.27506 71.2115 2.02727 71.2115H0.930279V72.3759H1.97149C2.21929 72.3759 2.41765 72.3268 2.56648 72.2289ZM3.16337 70.8324C3.41989 71.0321 3.54824 71.3042 3.54824 71.6495C3.54824 71.7825 3.53076 71.9011 3.49572 72.0049C3.46083 72.1089 3.41559 72.1994 3.36016 72.2764C3.30452 72.3533 3.23873 72.421 3.16276 72.479C3.08664 72.5373 3.00957 72.5872 2.93142 72.6288C3.05916 72.6743 3.17554 72.7272 3.2807 72.7873C3.38581 72.8475 3.47648 72.9188 3.55272 73.0018C3.6289 73.0846 3.68767 73.1831 3.72891 73.297C3.76999 73.4112 3.7908 73.5427 3.7908 73.6917C3.7908 73.8865 3.7525 74.0586 3.67585 74.2077C3.59932 74.3569 3.49076 74.4823 3.35009 74.5838C3.20936 74.6854 3.03957 74.762 2.84094 74.8137C2.64232 74.8655 2.42282 74.8914 2.18289 74.8914H0.171631V70.5328H2.12059C2.5592 70.5328 2.90686 70.6327 3.16337 70.8324Z" fill="#7BCD61"/>
<path d="M10.1832 73.0047C10.1832 73.3285 10.1386 73.6129 10.0494 73.8579C9.96034 74.1027 9.83497 74.3072 9.67329 74.4711C9.51153 74.6352 9.31577 74.7574 9.08565 74.8385C8.8556 74.9194 8.59746 74.9598 8.31149 74.9598C8.02946 74.9598 7.77453 74.9194 7.54658 74.8385C7.31843 74.7574 7.1237 74.636 6.96201 74.4742C6.80031 74.3123 6.67597 74.1121 6.58891 73.8734C6.50184 73.6347 6.45837 73.3576 6.45837 73.042V70.5328H7.21695V73.011C7.21695 73.4178 7.3149 73.7269 7.51087 73.9386C7.70677 74.1504 7.97771 74.2563 8.32387 74.2563C8.66569 74.2563 8.93464 74.1546 9.13061 73.9511C9.32651 73.7478 9.42461 73.4448 9.42461 73.042V70.5328H10.1832V73.0047Z" fill="#7BCD61"/>
<path d="M13.902 70.5328V74.8914H13.1433V70.5328H13.902Z" fill="#7BCD61"/>
<path d="M16.9363 70.5328H17.695V74.2003H19.9833V74.8914H16.9363V70.5328Z" fill="#7BCD61"/>
<path d="M25.6763 72.1213C25.6034 71.94 25.5015 71.7826 25.3707 71.6493C25.2398 71.5159 25.0808 71.4117 24.8938 71.3367C24.7067 71.2615 24.4988 71.224 24.2704 71.224H23.41V74.2003H24.2704C24.4988 74.2003 24.7067 74.1639 24.8938 74.0909C25.0808 74.018 25.2398 73.9158 25.3707 73.7845C25.5015 73.6532 25.6034 73.4968 25.6763 73.3154C25.7489 73.1341 25.7853 72.935 25.7853 72.7183C25.7853 72.5015 25.7489 72.3026 25.6763 72.1213ZM26.4197 73.5683C26.3078 73.8359 26.1491 74.0675 25.944 74.2626C25.7387 74.4577 25.494 74.6112 25.2102 74.7233C24.9262 74.8354 24.6141 74.8914 24.2742 74.8914H22.6512V70.5328H24.2742C24.6141 70.5328 24.9262 70.5879 25.2102 70.6978C25.494 70.8079 25.7387 70.9606 25.944 71.1555C26.1491 71.3506 26.3078 71.5811 26.4197 71.8467C26.5315 72.1124 26.5876 72.3989 26.5876 72.7059C26.5876 73.0131 26.5315 73.3005 26.4197 73.5683Z" fill="#7BCD61"/>
<path d="M30.1817 70.5328V74.8914H29.423V70.5328H30.1817Z" fill="#7BCD61"/>
<path d="M36.2507 70.5328H37.0093V74.8914H36.3702L33.9748 71.7907V74.8914H33.2161V70.5328H33.9236L36.2507 73.5465V70.5328Z" fill="#7BCD61"/>
<path d="M43.5171 74.5489C43.3865 74.6321 43.2454 74.7046 43.0943 74.7669C42.9428 74.8292 42.7801 74.8781 42.606 74.9132C42.432 74.9485 42.2493 74.9662 42.0588 74.9662C41.7188 74.9662 41.41 74.9092 41.1323 74.795C40.8545 74.6807 40.617 74.5231 40.4202 74.3217C40.2233 74.1203 40.0709 73.8827 39.9631 73.6088C39.8553 73.3349 39.8015 73.0381 39.8015 72.7183C39.8015 72.4113 39.8564 72.1206 39.9662 71.8467C40.0761 71.5728 40.2306 71.333 40.4296 71.1275C40.6287 70.9221 40.8658 70.7592 41.1417 70.6387C41.4172 70.5184 41.7188 70.4581 42.0463 70.4581C42.237 70.4581 42.4102 70.4717 42.5656 70.4987C42.7211 70.5257 42.8651 70.5641 42.9978 70.6138C43.1305 70.6636 43.2559 70.7251 43.3741 70.7975C43.4922 70.8701 43.6073 70.9541 43.719 71.0497L43.2341 71.6288C43.151 71.5583 43.0662 71.494 42.9791 71.4357C42.8921 71.3777 42.8008 71.3289 42.7056 71.2894C42.6102 71.2501 42.5055 71.2188 42.3914 71.196C42.2774 71.1733 42.1522 71.1618 42.0153 71.1618C41.8163 71.1618 41.6306 71.2025 41.4588 71.2835C41.2867 71.3646 41.1373 71.4758 41.0109 71.6172C40.8845 71.7588 40.7849 71.9231 40.7126 72.1101C40.64 72.2974 40.6038 72.4971 40.6038 72.7091C40.6038 72.9337 40.6388 73.1417 40.7095 73.3329C40.7798 73.5244 40.8805 73.6895 41.0109 73.829C41.1417 73.9683 41.297 74.0775 41.4774 74.1566C41.6576 74.2354 41.8598 74.275 42.0836 74.275C42.291 74.275 42.4848 74.2447 42.6652 74.1842C42.8454 74.1237 43.002 74.0434 43.1345 73.9432V73.1232H42.0214V72.457H43.8746V74.2875C43.7668 74.3789 43.6475 74.4661 43.5171 74.5489Z" fill="#7BCD61"/>
<path d="M52.3065 74.8914H51.5355V71.2427H50.1549V70.5328H53.6871V71.2427H52.3065V74.8914Z" fill="#7BCD61"/>
<path d="M57.1195 73.0546V74.8914H56.3608V70.5328H57.1195V72.3448H59.209V70.5328H59.9675V74.8914H59.209V73.0546H57.1195Z" fill="#7BCD61"/>
<path d="M66.1739 71.224H63.7115V72.3448H65.8941V73.036H63.7115V74.2003H66.2049V74.8914H62.9528V70.5328H66.1739V71.224Z" fill="#7BCD61"/>
<path d="M75.9493 71.224H73.4743V72.4257H75.6694V73.1169H73.4743V74.8914H72.7156V70.5328H75.9493V71.224Z" fill="#7BCD61"/>
<path d="M82.317 73.0047C82.317 73.3285 82.2724 73.6129 82.1832 73.8579C82.0941 74.1027 81.9685 74.3072 81.8071 74.4711C81.6453 74.6352 81.4494 74.7574 81.2194 74.8385C80.9894 74.9194 80.7313 74.9598 80.4452 74.9598C80.1633 74.9598 79.9083 74.9194 79.6804 74.8385C79.4523 74.7574 79.2574 74.636 79.0958 74.4742C78.934 74.3123 78.8097 74.1121 78.7226 73.8734C78.6356 73.6347 78.592 73.3576 78.592 73.042V70.5328H79.3507V73.011C79.3507 73.4178 79.4486 73.7269 79.6447 73.9386C79.8406 74.1504 80.1115 74.2563 80.4576 74.2563C80.7994 74.2563 81.0684 74.1546 81.2643 73.9511C81.4602 73.7478 81.5583 73.4448 81.5583 73.042V70.5328H82.317V73.0047Z" fill="#7BCD61"/>
<path d="M87.074 74.8914H86.3027V71.2427H84.9224V70.5328H88.4544V71.2427H87.074V74.8914Z" fill="#7BCD61"/>
<path d="M94.7844 73.0047C94.7844 73.3285 94.7398 73.6129 94.6507 73.8579C94.5617 74.1027 94.4361 74.3072 94.2745 74.4711C94.1127 74.6352 93.9168 74.7574 93.6868 74.8385C93.4568 74.9194 93.1987 74.9598 92.9126 74.9598C92.6307 74.9598 92.3757 74.9194 92.1478 74.8385C91.9199 74.7574 91.725 74.636 91.5632 74.4742C91.4015 74.3123 91.2771 74.1121 91.1902 73.8734C91.1032 73.6347 91.0594 73.3576 91.0594 73.042V70.5328H91.8183V73.011C91.8183 73.4178 91.9162 73.7269 92.1121 73.9386C92.308 74.1504 92.5791 74.2563 92.9253 74.2563C93.267 74.2563 93.536 74.1546 93.7319 73.9511C93.9278 73.7478 94.0259 73.4448 94.0259 73.042V70.5328H94.7844V73.0047Z" fill="#7BCD61"/>
<path d="M100.244 71.4085C100.085 71.2856 99.8631 71.224 99.5761 71.224H98.4596V72.6933H99.5824C99.8569 72.6933 100.075 72.6267 100.237 72.4936C100.399 72.36 100.481 72.1807 100.481 71.9556C100.481 71.7138 100.402 71.5315 100.244 71.4085ZM100.493 74.8914L99.4203 73.3721H98.4596V74.8914H97.701V70.5328H99.6411C99.8899 70.5328 100.115 70.5651 100.316 70.6295C100.517 70.6938 100.687 70.785 100.826 70.9033C100.965 71.0216 101.071 71.167 101.146 71.3392C101.221 71.5116 101.258 71.7034 101.258 71.9152C101.258 72.0979 101.232 72.2608 101.18 72.4039C101.128 72.547 101.057 72.6738 100.966 72.7838C100.875 72.8937 100.766 72.9872 100.639 73.064C100.513 73.1407 100.373 73.1999 100.219 73.2413L101.395 74.8914H100.493Z" fill="#7BCD61"/>
<path d="M107.284 71.224H104.821V72.3448H107.004V73.036H104.821V74.2003H107.315V74.8914H104.062V70.5328H107.284V71.224Z" fill="#7BCD61"/>
<path d="M115.666 74.8914H114.895V71.2427H113.515V70.5328H117.047V71.2427H115.666V74.8914Z" fill="#7BCD61"/>
<path d="M122.933 72.1175C122.86 71.9286 122.758 71.7637 122.628 71.6226C122.497 71.4816 122.341 71.3695 122.158 71.2863C121.976 71.2033 121.777 71.1618 121.561 71.1618C121.346 71.1618 121.148 71.2023 120.967 71.2832C120.787 71.3642 120.633 71.4743 120.504 71.6132C120.376 71.7524 120.275 71.9162 120.203 72.1051C120.13 72.2939 120.094 72.4943 120.094 72.706C120.094 72.9176 120.13 73.118 120.203 73.3068C120.275 73.4958 120.377 73.6607 120.507 73.8018C120.638 73.943 120.794 74.055 120.977 74.1381C121.159 74.2211 121.358 74.2626 121.574 74.2626C121.789 74.2626 121.987 74.2222 122.168 74.1411C122.348 74.0602 122.502 73.9503 122.631 73.8112C122.759 73.6722 122.86 73.5082 122.933 73.3194C123.005 73.1304 123.041 72.9302 123.041 72.7183C123.041 72.5067 123.005 72.3065 122.933 72.1175ZM123.676 73.5778C123.564 73.8515 123.406 74.0914 123.203 74.2968C123 74.5024 122.759 74.6652 122.482 74.7857C122.204 74.9058 121.897 74.9662 121.561 74.9662C121.225 74.9662 120.919 74.9071 120.641 74.7887C120.363 74.6703 120.125 74.5095 119.926 74.3062C119.727 74.1028 119.571 73.864 119.46 73.5901C119.348 73.3162 119.292 73.0255 119.292 72.7183C119.292 72.4113 119.348 72.1206 119.46 71.8467C119.571 71.5728 119.729 71.333 119.932 71.1275C120.135 70.9221 120.376 70.7592 120.653 70.6387C120.931 70.5184 121.238 70.4581 121.574 70.4581C121.909 70.4581 122.216 70.5174 122.494 70.6356C122.772 70.754 123.01 70.9148 123.209 71.1182C123.408 71.3215 123.564 71.5604 123.676 71.8342C123.788 72.1082 123.844 72.3989 123.844 72.706C123.844 73.0131 123.788 73.3036 123.676 73.5778Z" fill="#7BCD61"/>
<path d="M130.158 74.5489C130.028 74.6321 129.887 74.7046 129.735 74.7669C129.584 74.8292 129.421 74.8781 129.247 74.9132C129.073 74.9485 128.891 74.9662 128.7 74.9662C128.36 74.9662 128.051 74.9092 127.774 74.795C127.496 74.6807 127.259 74.5231 127.062 74.3217C126.865 74.1203 126.712 73.8827 126.605 73.6088C126.497 73.3349 126.443 73.0381 126.443 72.7183C126.443 72.4113 126.498 72.1206 126.608 71.8467C126.717 71.5728 126.872 71.333 127.071 71.1275C127.27 70.9221 127.507 70.7592 127.783 70.6387C128.059 70.5184 128.36 70.4581 128.688 70.4581C128.878 70.4581 129.051 70.4717 129.207 70.4987C129.362 70.5257 129.507 70.5641 129.639 70.6138C129.772 70.6636 129.897 70.7251 130.015 70.7975C130.134 70.8701 130.249 70.9541 130.361 71.0497L129.876 71.6288C129.793 71.5583 129.708 71.494 129.621 71.4357C129.533 71.3777 129.442 71.3289 129.347 71.2894C129.252 71.2501 129.147 71.2188 129.033 71.196C128.919 71.1733 128.793 71.1618 128.657 71.1618C128.458 71.1618 128.272 71.2025 128.1 71.2835C127.928 71.3646 127.779 71.4758 127.652 71.6172C127.526 71.7588 127.426 71.9231 127.354 72.1101C127.281 72.2974 127.245 72.4971 127.245 72.7091C127.245 72.9337 127.28 73.1417 127.351 73.3329C127.421 73.5244 127.522 73.6895 127.652 73.829C127.783 73.9683 127.939 74.0775 128.119 74.1566C128.299 74.2354 128.501 74.275 128.725 74.275C128.932 74.275 129.126 74.2447 129.307 74.1842C129.487 74.1237 129.643 74.0434 129.776 73.9432V73.1232H128.663V72.457H130.516V74.2875C130.408 74.3789 130.289 74.4661 130.158 74.5489Z" fill="#7BCD61"/>
<path d="M136.598 71.224H134.135V72.3448H136.318V73.036H134.135V74.2003H136.629V74.8914H133.376V70.5328H136.598V71.224Z" fill="#7BCD61"/>
<path d="M141.249 74.8914H140.478V71.2427H139.097V70.5328H142.629V71.2427H141.249V74.8914Z" fill="#7BCD61"/>
<path d="M146.062 73.0546V74.8914H145.303V70.5328H146.062V72.3448H148.151V70.5328H148.91V74.8914H148.151V73.0546H146.062Z" fill="#7BCD61"/>
<path d="M155.116 71.224H152.653V72.3448H154.836V73.036H152.653V74.2003H155.147V74.8914H151.895V70.5328H155.116V71.224Z" fill="#7BCD61"/>
<path d="M160.469 71.4085C160.311 71.2856 160.089 71.224 159.802 71.224H158.685V72.6933H159.808C160.083 72.6933 160.301 72.6267 160.463 72.4936C160.625 72.36 160.706 72.1807 160.706 71.9556C160.706 71.7138 160.627 71.5315 160.469 71.4085ZM160.719 74.8914L159.646 73.3721H158.685V74.8914H157.927V70.5328H159.867C160.116 70.5328 160.34 70.5651 160.542 70.6295C160.743 70.6938 160.913 70.785 161.052 70.9033C161.19 71.0216 161.297 71.167 161.372 71.3392C161.446 71.5116 161.484 71.7034 161.484 71.9152C161.484 72.0979 161.458 72.2608 161.406 72.4039C161.354 72.547 161.283 72.6738 161.191 72.7838C161.1 72.8937 160.991 72.9872 160.865 73.064C160.739 73.1407 160.599 73.1999 160.445 73.2413L161.621 74.8914H160.719Z" fill="#7BCD61"/>
<path d="M103.985 27.917C103.591 31.9067 100.412 35.0893 96.4273 35.4844C96.1411 35.5128 95.8516 35.5271 95.5664 35.5271C93.1818 35.5271 90.8956 34.5118 89.2937 32.7414C87.6699 30.9462 86.9078 28.6207 87.148 26.1929C87.5424 22.2032 90.7211 19.0206 94.7058 18.6257C94.9921 18.5973 95.2815 18.5828 95.5667 18.5828C97.9514 18.5828 100.237 19.5983 101.839 21.3686C103.463 23.1636 104.225 25.4892 103.985 27.917ZM107.929 26.409C107.613 20.1473 102.466 14.9936 96.2119 14.6763C95.9956 14.6653 95.7806 14.6599 95.5669 14.6599C92.9246 14.6599 90.4033 15.482 88.2753 17.0376L87.1051 17.893V0.0676765L87.1046 0.0683746V0.0676765H83.1874H74.9048L70.7835 3.98258V3.98991H83.1895C83.1933 10.7582 83.2007 24.1894 83.2029 27.1247C83.1972 27.1294 83.192 27.1348 83.1862 27.1395C83.1834 27.3972 83.1698 27.6565 83.1441 27.917C82.8493 30.8972 81.001 33.4265 78.4239 34.6804C78.4241 34.6811 78.4243 34.6818 78.4245 34.6825C77.267 35.2358 75.9787 35.5271 74.671 35.5271C74.4914 35.5271 74.3107 35.5214 74.1287 35.5101C72.9662 35.4372 71.8487 35.1268 70.8079 34.5873C68.0268 33.1463 66.299 30.2538 66.299 27.0386V25.6913H62.3463V26.954C62.3463 31.0048 64.2555 34.8025 67.453 37.1136C69.3394 38.4768 71.5518 39.2755 73.8506 39.4237C74.1231 39.4414 74.399 39.4501 74.6703 39.4501C76.0654 39.4501 77.5334 39.1587 78.9141 38.6531C78.912 38.678 78.9119 38.7031 78.9096 38.7279C80.7048 38.0852 82.3392 37.0263 83.6989 35.5943C84.2526 35.0112 84.74 34.3839 85.1635 33.7229C87.272 36.9838 90.8626 39.2279 94.9212 39.4339C95.1373 39.4447 95.3529 39.4501 95.5666 39.4501C95.5669 39.4501 95.5667 39.4501 95.5673 39.4501C98.9922 39.4501 102.179 38.0808 104.54 35.5943C106.9 33.1089 108.103 29.847 107.929 26.409Z" fill="#7BCD61"/>
<path d="M79.2096 12.673L79.223 7.52275L70.7837 15.5684L54.4567 -1.90735e-05L54.4601 38.8433H58.378V8.88172L70.8157 20.6965L79.2096 12.673Z" fill="#7BCD61"/>
</svg>
