<svg width="74" height="55" viewBox="0 0 74 55" fill="none" xmlns="http://www.w3.org/2000/svg">
<path d="M23.7526 54.6395C15.9921 54.6395 10.0926 52.789 6.05407 49.088C2.01551 45.387 -0.00251076 40.0781 2.34432e-06 33.1613C2.34432e-06 26.113 2.11101 20.6951 6.33302 16.9078C10.555 13.1204 16.6531 11.2288 24.6272 11.2329C29.6843 11.2411 34.677 12.1615 39.2497 13.9285L33.0712 19.9118C28.657 18.8015 27.5411 18.6781 24.5443 18.6781C15.668 18.6781 11.2286 23.4894 11.2261 33.112C11.2261 37.8061 12.3331 41.3354 14.5471 43.6999C16.7612 46.0645 19.9955 47.2375 24.2502 47.219C29.0779 47.2253 33.8251 46.2073 38.0283 44.2643V52.0303C36.0893 52.9614 33.9843 53.6388 31.7895 54.0381C29.1405 54.4801 26.4409 54.687 23.7375 54.6549" fill="#EB1F40"/>
<path d="M24.2455 24.7523C23.678 24.5531 23.0426 24.527 22.4538 24.6786C18.3926 25.8075 16.9779 27.8904 17.3549 30.8691C18.0007 35.9675 19.0122 38.0412 19.4415 39.167C19.9678 40.5351 22.0544 42.1732 24.2305 42.1732C25.8953 42.1732 28.3104 41.9953 32.3379 38.4062L73.1773 0.401566C72.9869 0.533474 73.2071 0.429179 73.1511 0.429179L73.1773 0.401566C70.4161 0.316445 67.6514 0.44793 64.9206 0.794225C63.3574 1.05903 61.8612 1.54256 60.4973 2.22373C56.9289 3.90478 28.4597 31.5562 27.6982 31.5562C26.3806 31.5562 26.0484 28.7954 25.7348 26.9548C25.6786 26.3431 25.4205 25.7555 24.9883 25.2554C24.7817 25.0505 24.5296 24.8798 24.2455 24.7523Z" fill="#0058A2"/>
</svg>
