<svg width="56" height="56" viewBox="0 0 56 56" fill="none" xmlns="http://www.w3.org/2000/svg">
<path d="M27.5011 2.70734e-05C33.8658 -0.00179225 40.0343 2.20345 44.9552 6.23997C49.8762 10.2765 53.2453 15.8945 54.4883 22.1367C55.7313 28.3788 54.7713 34.8588 51.7719 40.4725C48.7725 46.0862 43.9194 50.4861 38.0395 52.9226C32.1596 55.359 25.6167 55.6812 19.5259 53.8341C13.4351 51.9871 8.17322 48.0852 4.63691 42.7933C1.1006 37.5014 -0.491304 31.147 0.132476 24.8129C0.756255 18.4789 3.55712 12.5571 8.05777 8.05667C10.6076 5.49836 13.6381 3.46951 16.975 2.08683C20.3118 0.704152 23.8892 -0.00505054 27.5011 2.70734e-05ZM44.4917 10.496C40.5578 6.56334 35.3821 4.11623 29.8463 3.57164C24.3104 3.02704 18.7571 4.41865 14.1322 7.50937C9.50739 10.6001 6.09721 15.1987 4.48269 20.5218C2.86816 25.8448 3.14917 31.563 5.27785 36.7021C7.40652 41.8412 11.2512 46.0833 16.1568 48.7057C21.0624 51.3281 26.7254 52.1684 32.1812 51.0837C37.6369 49.9989 42.5478 47.0561 46.0771 42.7567C49.6064 38.4572 51.5359 33.067 51.5368 27.5045C51.5412 24.3451 50.921 21.216 49.712 18.297C48.5029 15.3781 46.7288 12.727 44.4917 10.496Z" fill="#7BCD61"/>
<path d="M11 37.6437L22.2259 26.3811L11 17.2206V37.6437ZM23.4625 27.387L11.8865 39H43.0118L31.9553 27.387L28.3075 30.5007C28.1642 30.6183 27.9846 30.6825 27.7993 30.6825C27.614 30.6825 27.4344 30.6183 27.2911 30.5007L23.4625 27.3757V27.387ZM33.1638 26.3585L44 37.7342V17.1189L33.1638 26.3585ZM12.0051 16L27.7598 28.8619L42.865 16H12.0051Z" fill="#ffffff"/>
</svg>