<svg width="54" height="55" viewBox="0 0 54 55" fill="none" xmlns="http://www.w3.org/2000/svg">
<g clip-path="url(#clip0_81_13)">
<path d="M54 27.5C54 12.3123 41.9116 0 27 0C12.0884 0 0 12.3123 0 27.5C0 41.2259 9.87356 52.603 22.7812 54.6659V35.4492H15.9258V27.5H22.7812V21.4414C22.7812 14.5492 26.8123 10.7422 32.9797 10.7422C35.9336 10.7422 39.0234 11.2793 39.0234 11.2793V18.0469H35.6189C32.2648 18.0469 31.2188 20.1667 31.2188 22.3416V27.5H38.707L37.51 35.4492H31.2188V54.6659C44.1264 52.603 54 41.2262 54 27.5Z" fill="#1877F2"/>
<path d="M37.51 35.4492L38.707 27.5H31.2188V22.3416C31.2188 20.1665 32.2648 18.0469 35.6189 18.0469H39.0234V11.2793C39.0234 11.2793 35.9336 10.7422 32.9794 10.7422C26.8123 10.7422 22.7812 14.5492 22.7812 21.4414V27.5H15.9258V35.4492H22.7812V54.6659C24.1769 54.8886 25.5874 55.0003 27 55C28.4126 55.0003 29.8231 54.8886 31.2188 54.6659V35.4492H37.51Z" fill="white"/>
</g>
<defs>
<clipPath id="clip0_81_13">
<rect width="54" height="55" fill="white"/>
</clipPath>
</defs>
</svg>
